<svg width="174" height="63" viewBox="0 0 174 63" fill="none" xmlns="http://www.w3.org/2000/svg">
<path d="M9.29503 15.363C10.5905 14.6936 11.8903 14.1768 13.2612 13.8847C19.2995 12.598 24.6377 13.9896 29.1696 18.2028C31.942 20.7775 33.6224 23.9947 34.261 27.7212C34.9689 31.7958 34.1884 35.9891 32.062 39.5361C29.9357 43.0831 26.6051 45.7475 22.6779 47.0431C12.9855 50.2596 2.57598 44.3289 0.396375 34.3458C0.0631215 32.8549 -0.0598937 31.3248 0.0309081 29.7998C0.0378156 29.6956 0.0309081 29.5907 0.0309081 29.4858C0.0309081 22.3326 0.0309081 15.1792 0.0309081 8.02563C0.0309081 5.78686 0.832174 3.85832 2.44035 2.2984C4.04853 0.73848 6.00144 0.0150333 8.23945 0.0627603C8.52006 0.0683676 8.78716 0.184274 8.98296 0.38537C9.17875 0.586466 9.28748 0.85658 9.28561 1.13725C9.2944 1.91093 9.28561 2.68524 9.28561 3.4608V15.3643L9.29503 15.363ZM17.2631 22.7538C12.9001 22.7538 9.35092 26.2818 9.34464 30.6218C9.33962 35.0178 12.8781 38.5765 17.2518 38.5778C21.5978 38.5778 25.1727 35.024 25.1746 30.6991C25.1765 26.3032 21.6443 22.7569 17.2631 22.7538Z" fill="white"/>
<path d="M155.955 47.9877C155.394 47.9249 154.875 47.8828 154.361 47.8112C150.729 47.3042 147.577 45.796 144.903 43.2866C141.93 40.4914 140.16 37.0425 139.638 33.0064C138.998 28.0497 140.286 23.591 143.459 19.7264C146.136 16.4665 149.608 14.4852 153.757 13.7517C162.658 12.1818 171.36 17.7432 173.498 26.6933C174.636 31.4616 173.818 35.9247 171.237 40.0933C170.05 42.0111 168.968 43.995 167.84 45.9486C165.328 50.2997 162.815 54.6508 160.3 59.0019C158.077 62.8245 153.166 64.0886 149.389 61.8348C148.686 61.4153 148.541 60.8526 148.949 60.1392L155.778 48.3036C155.832 48.215 155.88 48.124 155.955 47.9877ZM156.751 22.8249C152.452 22.8161 148.887 26.3328 148.816 30.5403C148.744 34.9438 152.244 38.6445 156.732 38.6502C161.091 38.6558 164.67 35.0738 164.656 30.7294C164.651 28.6345 163.816 26.627 162.335 25.1459C160.853 23.6647 158.846 22.8302 156.751 22.8249Z" fill="#E9A520"/>
<path d="M116.772 25.0197L119.612 22.2911L127.03 15.1666C127.248 14.9573 127.466 14.7469 127.684 14.5354C128.352 13.8886 129.199 13.8899 129.852 14.543C131.532 16.221 133.211 17.8994 134.89 19.5782C135.448 20.1365 135.442 20.7538 134.872 21.3008C132.151 23.9157 129.431 26.5311 126.713 29.1468C125.901 29.9306 125.904 30.9159 126.718 31.7021C129.221 34.1207 131.73 36.5332 134.244 38.9396L140.483 44.9363L141.477 45.8927C141.827 46.2312 141.925 46.6614 141.75 47.0909C141.575 47.5205 141.234 47.7516 140.75 47.7516C137.466 47.7516 134.181 47.7622 130.896 47.7472C129.668 47.7421 128.635 47.2297 127.756 46.3851C125.144 43.8693 122.531 41.3547 119.916 38.841L117.05 36.0823C116.977 36.0132 116.897 35.9517 116.774 35.8468V46.2682C116.774 47.263 116.163 47.9085 115.165 47.9155C113.155 47.9293 111.146 47.9293 109.136 47.9155C108.14 47.9073 107.522 47.2554 107.522 46.267C107.522 33.4887 107.522 20.7102 107.522 7.93155C107.522 3.88229 110.672 0.458514 114.697 0.104958C114.999 0.0785822 115.302 0.0647567 115.605 0.0635007C116.336 0.0597328 116.769 0.496817 116.769 1.23093C116.769 7.61002 116.769 13.9889 116.769 20.3676V25.0203L116.772 25.0197Z" fill="white"/>
<path d="M63.3611 45.8288C62.5083 46.2759 61.6832 46.6747 60.8097 46.9541C54.5177 48.9637 48.7964 47.9055 43.7628 43.6201C40.7066 41.0178 38.8372 37.6543 38.2004 33.6923C37.2805 27.9613 38.8284 22.933 42.8654 18.7387C45.5713 15.9272 48.9076 14.248 52.7751 13.7575C58.1893 13.0699 62.9479 14.5864 66.9441 18.3255C69.7171 20.9197 71.3887 24.1356 72.0468 27.8709C72.2517 29.024 72.3263 30.1965 72.2691 31.3662C72.2541 31.6576 72.2854 31.9503 72.2854 32.2454C72.2854 36.8565 72.2854 41.4682 72.2854 46.0806C72.2854 47.4163 71.454 48.2446 70.1121 48.2453C68.6163 48.2453 67.1193 48.2107 65.6248 48.2553C64.1598 48.2987 63.2562 47.2047 63.3698 46.0392C63.3712 45.9689 63.3683 45.8987 63.3611 45.8288ZM55.1155 23.0046C50.7412 23.0046 47.2033 26.5358 47.197 30.9009C47.1908 35.266 50.7562 38.8374 55.128 38.8299C59.4313 38.8236 63.0257 35.2755 63.027 31.0322C63.0282 26.5433 59.5419 23.0046 55.1155 23.0046Z" fill="white"/>
<path d="M75.6544 30.7093C75.6544 22.6497 81.3813 15.5585 89.2808 13.9163C94.2818 12.877 98.8765 13.8925 103.029 16.8679C104.07 17.6133 104.174 18.9509 103.273 19.8577C102.093 21.045 100.91 22.2283 99.723 23.4077C98.8728 24.2567 97.7701 24.4012 96.7139 23.8178C94.8577 22.7923 92.8708 22.4325 90.852 23.0906C87.6733 24.1255 85.596 26.3147 85.0334 29.6392C84.4142 33.3016 86.6102 36.8447 90.106 38.1284C92.3239 38.9447 94.496 38.7733 96.5876 37.6756C97.7217 37.0809 98.803 37.2316 99.7035 38.1321C100.813 39.2411 101.922 40.3506 103.032 41.4604C104.045 42.474 103.923 43.9291 102.748 44.7536C100.244 46.512 97.4737 47.5607 94.42 47.8132C89.4008 48.2283 84.9863 46.7676 81.255 43.3896C78.141 40.57 76.3451 37.0281 75.7862 32.8652C75.6899 32.1507 75.6458 31.4302 75.6544 30.7093Z" fill="white"/>
</svg>
