<svg width="71" height="56" viewBox="0 0 71 56" fill="none" xmlns="http://www.w3.org/2000/svg">
<path d="M51.396 44.4395C51.8308 44.8931 52.3204 45.2871 52.8526 45.6116C53.3346 45.9086 53.8382 46.1667 54.3587 46.3836C54.7731 46.5582 55.1998 46.6997 55.6352 46.807C55.8794 46.8739 56.1291 46.9171 56.3812 46.936C56.696 46.936 57.0983 46.9233 57.5881 46.8979C58.0638 46.8735 58.5355 46.7959 58.995 46.6664C59.4218 46.5493 59.8175 46.334 60.1523 46.0364C60.4756 45.7434 60.6373 45.3317 60.6373 44.8014C60.6573 44.4005 60.5621 44.0024 60.3636 43.6572C60.1583 43.3542 59.8847 43.1074 59.5665 42.9379C59.1601 42.7163 58.7323 42.5395 58.2901 42.4105C57.7833 42.2562 57.216 42.0764 56.5882 41.8713C54.6027 41.3224 52.9603 40.6622 51.6612 39.8906C50.3621 39.119 49.3372 38.2581 48.5865 37.3078C47.8586 36.4068 47.3205 35.359 47.0066 34.2312C46.7032 33.1007 46.5524 31.9323 46.5584 30.7591C46.5412 29.4172 46.8221 28.089 47.3796 26.8768C47.93 25.7084 48.7302 24.6845 49.7197 23.8823C50.8044 23.012 52.0366 22.3582 53.3532 21.9543C54.879 21.4829 56.4651 21.2532 58.0575 21.273C59.0426 21.2672 60.026 21.3575 60.9947 21.5426C61.8946 21.7189 62.7714 22.0036 63.6071 22.3908C64.4665 22.7946 65.2802 23.2947 66.0337 23.8823C66.8743 24.5387 67.6612 25.2653 68.3866 26.0549C68.6702 26.3977 68.8154 26.719 68.822 27.0189C68.8286 27.3187 68.6419 27.6401 68.2618 27.9829C67.6151 28.5327 66.9972 29.0728 66.4081 29.6032C65.8191 30.1335 65.2092 30.7249 64.5786 31.3773C64.4081 31.5333 64.203 31.6435 63.9815 31.6982C63.7941 31.74 63.5997 31.7354 63.4142 31.685C63.2266 31.6317 63.0495 31.5449 62.8909 31.4286C62.7222 31.3052 62.5717 31.1571 62.4441 30.9891C61.9167 30.3573 61.2291 29.89 60.4586 29.6398C59.7813 29.4197 59.0766 29.3027 58.3667 29.2926C57.5545 29.2926 56.9078 29.4391 56.4265 29.7321C56.1981 29.8604 56.0121 30.0563 55.8923 30.2946C55.7725 30.533 55.7244 30.8029 55.7543 31.0697C55.7604 31.2686 55.8067 31.4641 55.8903 31.6434C55.9738 31.8228 56.0927 31.9822 56.2393 32.1113C56.559 32.3761 56.9215 32.5805 57.3101 32.7149C57.7484 32.873 58.1973 32.9979 58.6532 33.0885C59.1259 33.1862 59.5618 33.2931 59.9608 33.4093C61.3606 33.8679 62.7338 34.4089 64.0737 35.0297C65.2532 35.5683 66.345 36.2923 67.3101 37.1759C68.2213 38.023 68.9466 39.0615 69.4375 40.2217C69.9433 41.4055 70.1963 42.8456 70.1963 44.5421C70.1963 46.2386 69.8687 47.7554 69.2134 49.0925C68.574 50.4121 67.6525 51.5643 66.5188 52.462C65.2985 53.4095 63.9189 54.1153 62.4498 54.5438C60.8042 55.0356 59.0983 55.2784 57.3853 55.2646C56.3337 55.2622 55.2842 55.1676 54.2481 54.9819C53.1903 54.7946 52.1555 54.4886 51.162 54.0692C50.1587 53.6449 49.2068 53.1012 48.3255 52.4489C47.3994 51.7781 46.5782 50.9649 45.8904 50.0374C45.7137 49.8101 45.5747 49.5542 45.4791 49.28C45.3906 49.0286 45.3488 48.7622 45.3557 48.4947C45.3599 48.2515 45.4105 48.0116 45.5046 47.7886C45.6009 47.5682 45.751 47.3774 45.94 47.2348L49.1509 43.9194C49.5499 43.5766 49.9026 43.4565 50.209 43.5591C50.5153 43.6616 50.911 43.9551 51.396 44.4395Z" fill="#0E1727"/>
<path d="M0.904918 2.05582C0.880439 1.60406 1.03129 1.16029 1.32599 0.817161C1.48128 0.658701 1.66881 0.535491 1.87586 0.455894C2.08291 0.376298 2.30465 0.342187 2.52603 0.355838H27.0596C29.1671 0.343908 31.2546 0.765517 33.1924 1.59449C35.0751 2.39456 36.7869 3.54874 38.2347 4.99445C39.6847 6.44733 40.8451 8.16311 41.6538 10.0502C42.4997 12.0171 42.9298 14.138 42.917 16.2793C42.9328 18.0358 42.6392 19.7815 42.0496 21.4361C41.4888 22.9933 40.657 24.4389 39.5927 25.7061C41.3699 27.3395 42.8017 29.3129 43.8034 31.5097C44.8359 33.7458 45.3655 36.1813 45.355 38.6445C45.3655 40.8365 44.9248 43.007 44.0602 45.0211C43.2301 46.9826 42.0469 48.7748 40.5695 50.3085C39.1032 51.8323 37.3597 53.0621 35.4325 53.9318C33.4889 54.8154 31.3777 55.2695 29.2428 55.2631H2.53025C2.10123 55.2843 1.67962 55.1454 1.34703 54.8734C1.05229 54.6136 0.904918 54.2134 0.904918 53.6727V2.05582ZM28.7249 16.6226C28.731 15.912 28.5928 15.2075 28.3186 14.5519C28.0498 13.9157 27.6593 13.3382 27.169 12.8519C26.6604 12.3489 26.0562 11.9528 25.3921 11.687C24.6734 11.3993 23.9051 11.2562 23.131 11.2657H15.2086V21.9859H23.0257C23.8146 21.995 24.5987 21.8638 25.3416 21.5983C26.013 21.3604 26.626 20.982 27.1396 20.4882C27.6358 20.0033 28.032 19.4257 28.3059 18.7882C28.5943 18.1032 28.737 17.3657 28.7249 16.6226V16.6226ZM30.685 38.1095C30.6828 37.3504 30.54 36.5983 30.2639 35.8913C29.9885 35.1671 29.5872 34.4975 29.0786 33.9132C28.5672 33.33 27.9518 32.8471 27.2638 32.4892C26.5613 32.1206 25.779 31.9304 24.9858 31.9352H15.2086V44.2817H24.9858C25.7689 44.2897 26.5428 44.1129 27.2448 43.7656C27.9327 43.4238 28.5488 42.9533 29.0596 42.3795C29.5792 41.7998 29.9874 41.1292 30.2639 40.4014C30.5457 39.6674 30.6885 38.8873 30.685 38.101V38.1095Z" fill="#0E1727"/>
</svg>
