<svg width="48" height="80" viewBox="0 0 48 80" fill="none" xmlns="http://www.w3.org/2000/svg">
<path d="M14.3031 49.9656C14.3031 52.1934 15.3529 54.6009 20.1596 55.5824V46.8452C13.4374 46.2652 8.61356 44.6603 5.68804 42.0303C2.76252 39.4003 1.30099 35.0758 1.30343 29.0568C1.30343 17.689 7.8941 11.1796 20.1596 10.1451V0.836792H27.9065V10.1981C39.4893 11.1796 46.5792 16.8853 46.5792 29.6355H33.0546C33.0546 27.629 31.3478 26.1596 27.9157 25.2234V32.9356C39.9702 33.8718 47.2729 36.457 47.2729 49.7425C47.2729 63.7844 40.3648 69.6243 27.9157 70.4281V79.7459H20.1559V70.4792C7.6757 69.6773 0.747326 65.2198 0.77302 49.9732L14.3031 49.9656ZM20.1559 32.4383V24.8206C15.797 25.5355 14.8335 28.2096 14.8335 30.0819C14.8335 31.8198 15.6686 32.1773 20.1559 32.4383ZM27.9029 47.3293V55.6656C32.8417 54.7749 33.7337 51.9665 33.7337 50.2266C33.7374 48.2257 32.9225 47.6905 27.9065 47.335L27.9029 47.3293Z" fill="#0E1727"/>
</svg>
