<svg width="139" height="116" viewBox="0 0 139 116" fill="none" xmlns="http://www.w3.org/2000/svg">
<path d="M270.123 72.7588L269.715 78.5188C266.73 85.0375 263.107 91.1297 258.919 96.6733C258.078 97.7921 256.992 99.3503 256.363 99.4994C251.984 100.614 248.516 103.001 245.052 104.472C244.403 104.762 242.923 104.124 242.568 104.286C235.58 107.447 227.931 109.673 220.113 112.06C219.829 112.147 217.816 111.571 217.273 111.786L213.014 113.444C207.336 113.174 203.027 114.438 198.555 115.611C195.952 115.041 193.28 115.07 190.687 115.698L118.018 107.742C93.3588 106.751 70.3605 107.845 48.6895 111.057L39.011 113.411C32.3218 113.608 25.6284 113.347 18.9655 112.627C16.6479 111.384 14.16 110.174 11.1574 109.669L6.11768 106.291C4.8045 103.706 2.41593 101.94 0.439067 99.9553C-0.529846 96.9551 0.148038 92.662 2.04682 90.9257C3.31386 88.9325 4.02724 86.5331 5.85149 85.1574C7.51249 84.743 8.80082 83.4418 9.88685 81.9375L10.8913 67.7612L12.428 59.403C12.5274 58.8477 14.2026 57.5714 14.4936 57.0078C14.6462 56.726 14.4936 55.3502 14.6249 55.172L22.8696 46.9422C26.1206 44.547 29.3148 41.9074 32.9456 39.4832L37.996 38.9403C38.5567 38.8823 40.1041 36.8021 40.6898 36.425C41.7456 35.8779 42.839 35.4357 43.9585 35.1031C51.6637 33.1389 61.8177 37.6474 65.0049 33.0891C67.9045 28.9701 70.4066 24.5692 74.1368 22.0539C76.2174 20.624 78.5224 19.6954 80.9156 19.3231C86.5268 18.5274 92.0705 17.3837 98.4199 18.2954C100.407 18.5854 102.139 19.7126 104.663 19.8866C104.986 17.5522 105.46 15.2498 106.082 12.9994C108.446 9.61802 111.591 7.55021 114.718 4.33867C118.835 2.48635 124.485 2.01808 129.45 0L137.329 0.803918C139.623 1.48687 141.799 2.62808 143.76 4.17706C144.115 4.4257 144.853 5.79319 145.215 5.97137C145.645 6.19515 147.306 5.97138 147.746 6.21587C148.186 6.46036 149.325 8.49916 149.907 8.61105C151.884 9.02544 153.478 10.3929 154.777 11.7065C156.906 13.8862 159.131 16.0204 161.875 17.595C163.451 18.5108 162.528 15.7261 162.826 15.2454C163.401 14.2882 165.47 12.5561 166.081 11.9303C171.049 6.82088 183.319 6.86646 189.505 11.3295C192.077 11.4799 194.604 12.1823 196.958 13.4014C199.364 14.5907 201.764 16.0245 203.464 18.2912L207.68 19.7996C209.614 23.0194 212.674 25.1867 214.746 27.8471C215.559 30.3334 216.052 32.6001 217.302 34.0629C217.657 34.4483 219.484 34.4773 219.942 34.3157C220.475 34.1168 221.827 32.4551 222.26 32.4385C225.216 32.3308 228.08 31.6098 231.189 32.0904L240.556 34.1127C242.833 34.8444 245.001 35.9762 246.987 37.4692C247.341 37.7427 248.108 39.189 248.502 39.2677C249.937 39.5388 251.281 40.264 252.388 41.3645L255.881 46.1176C256.133 46.4822 257.421 47.0417 257.673 47.4063L264.136 56.3572L268.26 65.4738C268.68 67.9662 269.304 70.4057 270.123 72.7588ZM260.008 78.3987C259.959 76.0212 259.768 73.6507 259.437 71.3043C259.121 69.1121 258.223 67.1604 257.503 65.0345C256.253 63.2485 254.663 61.5039 253.155 58.3794C251.345 56.639 248.52 54.4178 246.561 51.198C244.786 50.0667 242.855 48.9354 241.592 46.9629L231.654 43.8301C225.085 42.3922 220.712 45.2681 218.615 50.3154L211.261 49.6026C210.505 49.528 210.303 47.0707 210.076 45.6783C209.927 44.9034 210.374 42.1519 210.249 41.8576C208.734 38.3685 207.382 35.1362 205.05 33.0767C200.103 28.7297 194.257 25.3317 188.493 21.8881L183.56 20.2306L175.344 19.4764C173.803 21.4282 171.497 22.4476 169.825 23.67C168.739 27.3995 167.763 30.6359 167.046 34.2494C164.608 34.1956 162.354 34.6265 159.948 34.8296C157.708 31.1456 155.391 27.3705 152.494 24.5568L141.659 16.7704L134.295 13.2605L125.777 12.4317C122.891 13.8034 120.24 15.9043 116.755 17.1475C115.438 18.5274 114.668 20.7237 113.561 23.0277C113.727 25.2903 114.32 27.6316 114.114 30.5613C112.929 31.9247 111.527 32.9772 110.267 34.208C110.086 34.3737 108.915 34.1748 108.595 34.0754C105.698 33.2031 102.942 31.7882 100.432 29.8859C95.0837 29.4715 90.2392 29.8279 84.7948 29.5709C82.4843 30.4743 80.1383 31.6719 77.7427 32.7825L73.6221 37.0466C72.8449 37.8298 72.8236 39.8023 72.5574 41.1905C72.4225 41.8991 73.1821 44.3274 73.1253 45.3095C73.0553 46.1429 72.8366 46.9499 72.4833 47.6786C72.13 48.4073 71.6499 49.0416 71.0739 49.5405C69.75 50.6262 67.6774 50.7049 64.8629 51.0405C63.5107 50.7132 61.8639 49.2255 60.249 48.2931L51.5749 46.4118C49.3532 45.9145 47.2131 46.764 45.3107 47.3732L29.5774 54.7369C29.0131 55.0063 28.9918 56.1749 28.3459 56.5768C26.2519 57.82 24.1508 59.6557 22.9406 62.4156C22.6566 63.0372 22.8092 65.1547 22.6318 65.7722C22.4188 66.5263 21.056 68.5527 20.914 69.3856C20.5982 72.0221 20.1057 74.6255 19.4411 77.172C19.6363 79.3476 20.0303 81.6433 19.9948 83.8562C18.4332 86.7569 17.4146 90.072 16.1546 92.6951L11.8531 96.9344C11.6579 97.1416 11.6046 98.7452 11.6969 99.1348C11.7537 99.3503 12.1902 99.6901 12.3038 99.7978C12.2843 99.806 12.263 99.806 12.2435 99.7978C12.2679 99.8167 12.2959 99.8281 12.3251 99.831C15.9807 101.779 18.8165 104.029 22.7525 104.58C24.7648 104.858 26.6175 103.585 28.3033 102.984C38.6739 103.581 48.04 103.063 57.5907 102.475L64.3696 100.892L122.767 99.7978C128.896 99.9097 135.771 101.634 141.396 101.343C144.899 101.161 148.825 100.879 152.796 101.095C155.721 101.236 158.581 101.12 160.959 100.303C161.467 100.125 161.988 100.767 162.244 100.767C184.738 100.643 206.498 99.9387 227.548 97.788L241.677 95.3017L251.26 91.9409L257.105 86.1726C258.287 84.1214 259.086 81.3698 260.008 78.3987Z" fill="#0E1727"/>
<path d="M259.437 71.3044C259.769 73.6508 259.96 76.0213 260.009 78.3987C259.086 81.3699 258.288 84.1007 257.102 86.1561L251.257 91.9245L241.674 95.2852L227.545 97.7715C206.502 99.9263 184.742 100.627 162.241 100.751C161.985 100.751 161.464 100.109 160.956 100.287C158.592 101.116 155.732 101.219 152.793 101.078C148.822 100.863 144.896 101.145 141.393 101.327C135.768 101.617 128.893 99.8932 122.764 99.7813L64.3666 100.875L57.5877 102.458C48.037 103.047 38.6709 103.565 28.3003 102.968C26.6145 103.569 24.7512 104.841 22.7494 104.563C18.8135 104.012 15.9777 101.762 12.3221 99.8145C12.3153 99.8177 12.3076 99.8177 12.3008 99.8145C12.1872 99.7067 11.7507 99.3669 11.6939 99.1514C11.6016 98.7619 11.6549 97.1582 11.8501 96.951L16.1587 92.6786C17.4187 90.0638 18.4373 86.7487 19.9989 83.8397C20.0344 81.6268 19.644 79.3311 19.4452 77.1556C20.1098 74.609 20.6023 72.0056 20.9181 69.3691C21.0601 68.5404 22.4229 66.5098 22.6359 65.7557C22.8133 65.1382 22.6607 63.0207 22.9446 62.3991C24.1549 59.6392 26.256 57.7994 28.35 56.5603C28.9959 56.1459 29.0172 54.9898 29.5815 54.7204L45.3148 47.3567C47.2172 46.7475 49.3573 45.898 51.579 46.3953L60.2389 48.2891C61.8538 49.2215 63.5006 50.7091 64.8528 51.0365C67.6673 50.7008 69.7399 50.6221 71.0638 49.5364C71.6398 49.0375 72.1199 48.4033 72.4732 47.6746C72.8265 46.9459 73.0452 46.1388 73.1152 45.3055C73.172 44.3234 72.4053 41.895 72.5473 41.1864C72.8277 39.8023 72.849 37.8298 73.612 37.0425L77.7219 32.7991C80.1176 31.6886 82.4636 30.491 84.7741 29.5876C90.2184 29.8445 95.0665 29.4964 100.412 29.9025C102.921 31.8049 105.678 33.2197 108.575 34.092C108.894 34.1915 110.065 34.3904 110.246 34.2246C111.506 32.9815 112.908 31.9413 114.093 30.578C114.299 27.6483 113.707 25.3069 113.54 23.0444C114.647 20.7404 115.417 18.5441 116.734 17.1642C120.219 15.921 122.87 13.82 125.756 12.4484L134.274 13.2772L141.638 16.7705L152.467 24.5445C155.37 27.3665 157.687 31.1333 159.92 34.8172C162.326 34.6142 164.58 34.1832 167.018 34.2371C167.728 30.6236 168.711 27.4038 169.797 23.6577C171.469 22.4145 173.776 21.4158 175.316 19.464L183.546 20.2597L188.48 21.9172C194.243 25.3525 200.089 28.7505 205.036 33.1058C207.368 35.1777 208.72 38.3976 210.236 41.8867C210.36 42.181 209.913 44.9325 210.062 45.7074C210.289 47.0998 210.491 49.5571 211.247 49.6317L218.601 50.3445C220.699 45.2972 225.071 42.4213 231.641 43.8592L241.578 46.992C242.842 48.9645 244.772 50.0958 246.547 51.2271C248.506 54.4469 251.331 56.6681 253.141 58.4085C254.66 61.533 256.24 63.2776 257.489 65.0636C258.209 67.1646 259.122 69.1122 259.437 71.3044Z" fill="white"/>
</svg>
