<svg width="206" height="145" viewBox="0 0 206 145" fill="none" xmlns="http://www.w3.org/2000/svg">
<path d="M205.877 91.0084L205.366 98.2132C201.632 106.367 197.1 113.987 191.862 120.921C190.81 122.321 189.451 124.27 188.665 124.456C183.187 125.851 178.85 128.836 174.517 130.676C173.705 131.039 171.854 130.241 171.41 130.443C162.669 134.398 153.102 137.181 143.322 140.167C142.967 140.276 140.45 139.555 139.77 139.825L134.443 141.898C127.34 141.561 121.951 143.142 116.357 144.609C113.102 143.896 109.759 143.933 106.515 144.718L15.62 134.766C-15.2245 133.527 -43.9914 134.895 -71.098 138.912L-83.2041 141.857C-91.5711 142.104 -99.9433 141.777 -108.277 140.877C-111.176 139.322 -114.288 137.808 -118.044 137.176L-124.348 132.952C-125.99 129.717 -128.978 127.509 -131.451 125.026C-132.663 121.274 -131.815 115.904 -129.44 113.732C-127.855 111.239 -126.963 108.238 -124.681 106.517C-122.603 105.999 -120.992 104.371 -119.633 102.489L-118.377 84.7574L-116.455 74.3026C-116.33 73.6081 -114.235 72.0116 -113.871 71.3067C-113.68 70.9542 -113.871 69.2334 -113.707 69.0105L-103.394 58.7164C-99.3278 55.7205 -95.3324 52.4187 -90.7909 49.3865L-84.4737 48.7075C-83.7723 48.6349 -81.8368 46.0329 -81.1043 45.5612C-79.7836 44.8769 -78.4159 44.3238 -77.0157 43.9078C-67.3779 41.4509 -54.6769 47.0903 -50.6904 41.3887C-47.0634 36.2365 -43.9337 30.7318 -39.268 27.5855C-36.6654 25.7969 -33.7823 24.6355 -30.7888 24.1697C-23.7702 23.1745 -16.836 21.744 -8.89403 22.8843C-6.408 23.2471 -4.24161 24.657 -1.08524 24.8747C-0.681442 21.9547 -0.0878143 19.0748 0.690491 16.26C3.64709 12.0304 7.58035 9.44398 11.4914 5.42692C16.641 3.10998 23.7085 2.52427 29.9191 0L39.7744 1.00556C42.6441 1.85982 45.3656 3.28727 47.8185 5.22477C48.2625 5.53577 49.1858 7.24626 49.6386 7.46914C50.1758 7.74904 52.2534 7.46914 52.8039 7.77495C53.3544 8.08077 54.7794 10.631 55.5074 10.7709C57.9801 11.2892 59.9734 12.9997 61.5982 14.6428C64.2618 17.3692 67.0453 20.0386 70.4769 22.0083C72.4479 23.1538 71.2937 19.6706 71.6666 19.0694C72.3858 17.872 74.9739 15.7054 75.7375 14.9227C81.9526 8.53172 97.2993 8.58873 105.037 14.1711C108.255 14.3593 111.415 15.2379 114.36 16.7628C117.37 18.2504 120.371 20.0438 122.497 22.8791L127.771 24.7658C130.19 28.7932 134.017 31.5041 136.61 34.8318C137.626 37.9418 138.243 40.777 139.806 42.6067C140.25 43.0888 142.536 43.1251 143.109 42.9229C143.775 42.6741 145.466 40.5956 146.008 40.5749C149.706 40.4401 153.288 39.5382 157.177 40.1395L168.893 42.6689C171.741 43.5842 174.453 44.9999 176.937 46.8674C177.381 47.2095 178.339 49.0185 178.832 49.117C180.627 49.456 182.309 50.3632 183.693 51.7397L188.062 57.685C188.377 58.1411 189.988 58.8409 190.303 59.297L198.387 70.4929L203.546 81.8962C204.071 85.0137 204.852 88.0652 205.877 91.0084ZM193.225 98.0629C193.163 95.0892 192.924 92.1241 192.51 89.1891C192.115 86.4471 190.992 84.0058 190.09 81.3467C188.528 79.1127 186.539 76.9306 184.652 73.0224C182.388 70.8454 178.854 68.0671 176.404 64.0397C174.184 62.6247 171.769 61.2096 170.189 58.7424L157.759 54.8238C149.541 53.0252 144.072 56.6224 141.449 62.9357L132.25 62.0441C131.305 61.9508 131.052 58.8771 130.768 57.1355C130.581 56.1663 131.14 52.7246 130.985 52.3565C129.089 47.9922 127.398 43.9492 124.481 41.3731C118.293 35.9358 110.981 31.6855 103.772 27.3782L97.6012 25.3049L87.3242 24.3615C85.3975 26.8029 82.5119 28.0779 80.421 29.607C79.0625 34.272 77.8418 38.3202 76.945 42.84C73.8952 42.7726 71.0762 43.3117 68.0663 43.5657C65.2651 38.9577 62.3662 34.2357 58.7437 30.7162L45.1904 20.9768L35.9788 16.5866L25.3244 15.5499C21.7152 17.2656 18.399 19.8935 14.0396 21.4485C12.3926 23.1745 11.4293 25.9217 10.0442 28.8036C10.2528 31.6337 10.9942 34.5623 10.7367 38.2269C9.25398 39.9322 7.50044 41.2487 5.92448 42.7882C5.69807 42.9955 4.23309 42.7467 3.83356 42.6223C0.2099 41.5312 -3.23831 39.7615 -6.37691 37.382C-13.067 36.8636 -19.1267 37.3094 -25.9366 36.988C-28.8266 38.118 -31.7611 39.616 -34.7576 41.0051L-39.9117 46.3387C-40.8839 47.3184 -40.9105 49.7856 -41.2435 51.522C-41.4122 52.4084 -40.4622 55.4458 -40.5332 56.6742C-40.6207 57.7166 -40.8942 58.7261 -41.3362 59.6376C-41.7781 60.549 -42.3786 61.3424 -43.0991 61.9664C-44.755 63.3244 -47.3476 63.4229 -50.868 63.8427C-52.5593 63.4333 -54.6192 61.5724 -56.6391 60.4062L-67.4888 58.053C-70.2679 57.431 -72.9448 58.4936 -75.3243 59.2555L-95.0038 68.4662C-95.7097 68.8031 -95.7363 70.2648 -96.5443 70.7676C-99.1635 72.3226 -101.792 74.6188 -103.305 78.0709C-103.661 78.8484 -103.47 81.4971 -103.692 82.2694C-103.958 83.2127 -105.663 85.7474 -105.84 86.7892C-106.235 90.0869 -106.851 93.3434 -107.683 96.5286C-107.438 99.2499 -106.946 102.121 -106.99 104.889C-108.943 108.518 -110.217 112.664 -111.793 115.945L-117.174 121.248C-117.418 121.507 -117.485 123.513 -117.369 124C-117.298 124.27 -116.752 124.695 -116.61 124.829C-116.634 124.84 -116.661 124.84 -116.686 124.829C-116.655 124.853 -116.62 124.867 -116.583 124.871C-112.011 127.307 -108.464 130.122 -103.541 130.811C-101.024 131.158 -98.7063 129.567 -96.5976 128.815C-83.6258 129.562 -71.9104 128.914 -59.9642 128.178L-51.485 126.198L21.5598 124.829C29.2266 124.969 37.8255 127.126 44.8619 126.763C49.2435 126.535 54.1534 126.182 59.121 126.452C62.7791 126.628 66.3572 126.483 69.3315 125.462C69.9664 125.239 70.6189 126.042 70.9386 126.042C99.0751 125.887 126.293 125.006 152.622 122.316L170.295 119.206L182.282 115.002L189.593 107.787C191.071 105.221 192.07 101.779 193.225 98.0629Z" fill="#0E1727"/>
<path d="M192.511 89.1892C192.925 92.1242 193.164 95.0893 193.226 98.063C192.071 101.779 191.072 105.195 189.59 107.766L182.278 114.981L170.292 119.185L152.619 122.295C126.298 124.99 99.0805 125.866 70.9351 126.022C70.6155 126.022 69.9629 125.218 69.3281 125.441C66.3715 126.478 62.7934 126.607 59.1176 126.431C54.15 126.162 49.2401 126.514 44.8584 126.742C37.8221 127.105 29.2231 124.949 21.5564 124.809L-51.4885 126.177L-59.9676 128.157C-71.9139 128.893 -83.6293 129.541 -96.601 128.795C-98.7097 129.546 -101.04 131.138 -103.544 130.79C-108.467 130.101 -112.014 127.286 -116.587 124.85C-116.595 124.854 -116.605 124.854 -116.614 124.85C-116.756 124.716 -117.302 124.291 -117.373 124.021C-117.488 123.534 -117.422 121.528 -117.177 121.269L-111.788 115.925C-110.212 112.654 -108.938 108.507 -106.985 104.869C-106.94 102.101 -107.429 99.2292 -107.677 96.508C-106.846 93.3228 -106.23 90.0663 -105.835 86.7686C-105.657 85.7319 -103.953 83.1921 -103.686 82.2487C-103.464 81.4764 -103.655 78.8278 -103.3 78.0503C-101.786 74.5982 -99.1581 72.2968 -96.5389 70.747C-95.7309 70.2287 -95.7043 68.7825 -94.9984 68.4456L-75.3189 59.2349C-72.9394 58.4729 -70.2625 57.4104 -67.4834 58.0323L-56.6514 60.4011C-54.6315 61.5674 -52.5717 63.4282 -50.8803 63.8377C-47.3599 63.4178 -44.7673 63.3193 -43.1115 61.9613C-42.391 61.3373 -41.7904 60.544 -41.3485 59.6325C-40.9066 58.721 -40.633 57.7116 -40.5455 56.6691C-40.4745 55.4407 -41.4334 52.4033 -41.2558 51.5169C-40.9051 49.7857 -40.8785 47.3185 -39.924 46.3336L-34.7833 41.0259C-31.7867 39.6368 -28.8523 38.1388 -25.9623 37.0089C-19.1524 37.3302 -13.0882 36.8948 -6.40257 37.4028C-3.26396 39.7823 0.18425 41.552 3.80791 42.6431C4.20745 42.7675 5.67242 43.0163 5.89883 42.809C7.4748 41.254 9.22833 39.953 10.7111 38.2477C10.9686 34.5831 10.2272 31.6545 10.0185 28.8244C11.4036 25.9425 12.3669 23.1954 14.0139 21.4693C18.3734 19.9143 21.6895 17.2864 25.2987 15.5707L35.9531 16.6074L45.1648 20.9769L58.7092 30.7008C62.3406 34.2306 65.2395 38.9422 68.0318 43.5502C71.0417 43.2962 73.8606 42.7572 76.9105 42.8245C77.7983 38.3047 79.028 34.2773 80.3865 29.5916C82.4774 28.0366 85.363 26.7874 87.2896 24.3461L97.5845 25.3413L103.755 27.4146C110.965 31.7115 118.276 35.9618 124.465 41.4095C127.381 44.0012 129.073 48.0286 130.968 52.3929C131.124 52.7609 130.564 56.2026 130.751 57.1719C131.035 58.9135 131.288 61.9872 132.233 62.0805L141.432 62.972C144.055 56.6588 149.525 53.0616 157.742 54.8602L170.172 58.7787C171.752 61.246 174.167 62.661 176.387 64.0761C178.838 68.1035 182.371 70.8818 184.635 73.0587C186.535 76.967 188.511 79.1491 190.074 81.3831C190.975 84.0111 192.116 86.4472 192.511 89.1892Z" fill="white"/>
</svg>
