<svg width="187" height="104" viewBox="0 0 187 104" fill="none" xmlns="http://www.w3.org/2000/svg">
<path d="M1.08806 99.9042C13.1607 97.6751 39.6644 96.0313 51.8268 97.7224C92.1763 103.341 132.972 105.194 173.673 103.257C203.439 101.838 233.27 98.3905 262.964 100.844C270.272 101.436 278.736 102.027 283.745 96.7054C290.276 89.8229 285.966 78.3758 279.711 71.2804C276.916 68.1052 273.648 65.1193 269.584 63.8421C266.214 62.7896 262.509 62.9788 259.217 61.6958C253.016 59.2833 250.011 52.5605 246.648 46.8606C241.111 37.4001 231.085 28.6965 220.198 30.7837C217.564 31.2863 214.853 32.4097 212.309 31.5937C209.675 30.7541 208.119 28.1525 206.545 25.9175C203.484 21.6939 199.489 18.2146 194.863 15.7436C190.238 13.2725 185.104 11.8745 179.85 11.6558C174.594 11.5194 169.375 12.5666 164.589 14.7179C159.803 16.8692 155.576 20.0682 152.227 24.0727C142.728 13.3883 131.805 2.19537 117.511 0.291447C102.847 -1.68342 88.9367 6.70683 77.1334 15.5228C72.5306 18.964 67.9097 22.6181 65.0427 27.5908C62.1757 32.5634 61.4155 39.0734 64.6118 43.8214H50.5639C44.5784 43.8214 38.4134 43.8214 32.8768 46.086C23.5874 49.8406 17.4883 60.123 18.7093 69.9559C19.0924 73.0661 19.9842 76.6788 17.8474 78.9907C16.7221 80.2028 15.0282 80.6877 13.4481 81.2021C9.37195 82.5206 5.31384 84.4482 2.63235 87.7534C-0.0491326 91.0587 -1.00686 96.0313 1.30353 99.579" fill="white"/>
</svg>
