<svg width="244" height="250" viewBox="0 0 244 250" fill="none" xmlns="http://www.w3.org/2000/svg">
<path d="M2.56212 239.63C30.9905 234.284 93.4004 230.341 122.04 234.397C217.054 247.875 313.118 252.319 408.959 247.672C479.051 244.268 549.297 236 619.219 241.885C636.428 243.304 656.358 244.722 668.155 231.958C683.531 215.449 673.384 187.992 658.655 170.973C652.073 163.357 644.378 156.195 634.807 153.132C626.872 150.607 618.148 151.061 610.396 147.984C595.794 142.197 588.719 126.072 580.798 112.4C567.76 89.708 544.152 68.8314 518.515 73.8378C512.313 75.0433 505.928 77.738 499.938 75.7808C493.737 73.7669 490.072 67.5267 486.365 62.1657C479.157 52.0351 469.75 43.6896 458.858 37.7625C447.966 31.8354 435.876 28.4823 423.505 27.9577C411.127 27.6306 398.839 30.1422 387.569 35.3023C376.3 40.4624 366.345 48.1357 358.459 57.7407C336.091 32.1131 310.369 5.26581 276.712 0.699066C242.18 -4.03787 209.425 16.087 181.631 37.233C170.793 45.4872 159.912 54.2519 153.16 66.1793C146.409 78.1067 144.619 93.7216 152.146 105.11H119.066C104.972 105.11 90.4546 105.11 77.4173 110.542C55.5428 119.548 41.1808 144.211 44.056 167.796C44.9581 175.256 47.058 183.922 42.0264 189.467C39.3766 192.375 35.3879 193.538 31.667 194.771C22.0688 197.934 12.5129 202.558 6.19858 210.486C-0.115696 218.413 -2.37093 230.341 3.0695 238.85" fill="white"/>
</svg>
