<svg width="250" height="115" viewBox="0 0 250 115" fill="none" xmlns="http://www.w3.org/2000/svg">
<path d="M267.835 72.1424L267.43 77.8536C264.47 84.317 260.878 90.3576 256.725 95.8543C255.891 96.9637 254.814 98.5086 254.191 98.6565C249.849 99.7618 246.411 102.128 242.976 103.587C242.332 103.875 240.865 103.242 240.513 103.402C233.584 106.537 226 108.744 218.248 111.11C217.966 111.197 215.971 110.625 215.432 110.839L211.21 112.483C205.579 112.216 201.307 113.469 196.873 114.632C194.292 114.066 191.642 114.096 189.071 114.718L117.018 106.829C92.5679 105.847 69.7644 106.932 48.277 110.116L38.6805 112.45C32.048 112.646 25.4113 112.387 18.8049 111.673C16.5069 110.441 14.04 109.241 11.0629 108.739L6.06585 105.391C4.76379 102.827 2.39547 101.077 0.435347 99.1085C-0.525357 96.1337 0.146784 91.877 2.02948 90.1554C3.28579 88.179 3.99312 85.8 5.80192 84.4359C7.44884 84.025 8.72626 82.7349 9.80309 81.2434L10.799 67.1872L12.3227 58.8997C12.4213 58.3491 14.0823 57.0836 14.3708 56.5248C14.5222 56.2454 14.3708 54.8813 14.501 54.7046L22.6758 46.5445C25.8993 44.1696 29.0664 41.5523 32.6664 39.1487L37.6741 38.6104C38.2301 38.5529 39.7644 36.4903 40.345 36.1164C41.3919 35.5739 42.4761 35.1355 43.5861 34.8057C51.226 32.8581 61.294 37.3285 64.4541 32.8088C67.3292 28.7246 69.8101 24.3611 73.5087 21.8671C75.5717 20.4492 77.8572 19.5285 80.2301 19.1594C85.7937 18.3705 91.2905 17.2364 97.5861 18.1404C99.5568 18.428 101.274 19.5456 103.776 19.7181C104.096 17.4035 104.567 15.1206 105.184 12.8893C107.527 9.53653 110.645 7.48624 113.746 4.30192C117.828 2.46528 123.43 2.00099 128.353 0L136.166 0.797108C138.44 1.47428 140.598 2.60582 142.542 4.14167C142.894 4.3882 143.626 5.74411 143.985 5.92079C144.411 6.14266 146.058 5.92079 146.494 6.16321C146.93 6.40562 148.06 8.42716 148.637 8.53809C150.597 8.94897 152.177 10.3049 153.465 11.6074C155.577 13.7686 157.783 15.8846 160.503 17.446C162.066 18.354 161.151 15.5929 161.447 15.1163C162.017 14.1672 164.068 12.4497 164.674 11.8292C169.6 6.76309 181.766 6.80829 187.899 11.2335C190.45 11.3826 192.955 12.0791 195.289 13.2879C197.675 14.4671 200.054 15.8887 201.74 18.1363L205.92 19.6319C207.838 22.8244 210.872 24.9733 212.927 27.6112C213.733 30.0764 214.222 32.324 215.461 33.7744C215.813 34.1565 217.625 34.1852 218.079 34.025C218.607 33.8278 219.947 32.1801 220.377 32.1637C223.308 32.0569 226.148 31.342 229.231 31.8186L238.518 33.8237C240.775 34.5492 242.925 35.6714 244.894 37.1518C245.246 37.423 246.006 38.857 246.397 38.935C247.82 39.2038 249.153 39.9229 250.25 41.0141L253.713 45.7269C253.963 46.0885 255.24 46.6431 255.49 47.0047L261.898 55.8797L265.987 64.9191C266.404 67.3904 267.022 69.8093 267.835 72.1424ZM257.806 77.7345C257.757 75.3772 257.567 73.0267 257.239 70.7002C256.926 68.5266 256.035 66.5914 255.321 64.4836C254.082 62.7127 252.506 60.9829 251.01 57.8848C249.215 56.1591 246.414 53.9568 244.472 50.7643C242.712 49.6426 240.798 48.5209 239.545 46.5651L229.692 43.4588C223.178 42.0331 218.842 44.8846 216.763 49.8891L209.471 49.1824C208.722 49.1084 208.521 46.6719 208.296 45.2913C208.148 44.523 208.591 41.7948 208.468 41.503C206.966 38.0434 205.625 34.8385 203.313 32.7965C198.407 28.4863 192.611 25.1171 186.896 21.7027L182.005 20.0592L173.858 19.3114C172.331 21.2466 170.044 22.2574 168.386 23.4695C167.309 27.1674 166.342 30.3764 165.631 33.9593C163.213 33.9058 160.979 34.3332 158.593 34.5345C156.372 30.8818 154.074 27.1386 151.203 24.3488L140.459 16.6283L133.157 13.1482L124.711 12.3264C121.85 13.6864 119.221 15.7696 115.766 17.0022C114.46 18.3705 113.696 20.5481 112.598 22.8326C112.764 25.076 113.352 27.3975 113.147 30.3024C111.972 31.6542 110.582 32.6979 109.333 33.9182C109.153 34.0825 107.992 33.8853 107.675 33.7867C104.803 32.9218 102.069 31.5189 99.5814 29.6327C94.2782 29.2218 89.4747 29.5752 84.0764 29.3204C81.7855 30.2161 79.4594 31.4036 77.084 32.5047L72.9984 36.7327C72.2277 37.5093 72.2066 39.4651 71.9427 40.8415C71.809 41.5441 72.5621 43.9519 72.5058 44.9257C72.4364 45.752 72.2196 46.5522 71.8692 47.2747C71.5189 47.9972 71.0429 48.6261 70.4717 49.1208C69.1591 50.1973 67.104 50.2753 64.3134 50.6081C62.9726 50.2835 61.3398 48.8085 59.7386 47.884L51.138 46.0186C48.9351 45.5255 46.8131 46.3678 44.9269 46.9718L29.3269 54.2732C28.7673 54.5403 28.7462 55.6989 28.1057 56.0975C26.0295 57.3301 23.9462 59.1503 22.7462 61.8868C22.4647 62.5031 22.616 64.6027 22.44 65.2149C22.2289 65.9627 20.8776 67.9719 20.7368 68.7978C20.4236 71.4119 19.9353 73.9933 19.2764 76.5182C19.47 78.6754 19.8606 80.9517 19.8254 83.1458C18.277 86.0219 17.267 89.309 16.0178 91.9098L11.7526 96.1131C11.5591 96.3186 11.5063 97.9087 11.5978 98.2949C11.6541 98.5086 12.087 98.8455 12.1996 98.9523C12.1802 98.9605 12.1591 98.9605 12.1397 98.9523C12.1639 98.9711 12.1918 98.9824 12.2207 98.9852C15.8453 100.916 18.6571 103.147 22.5597 103.694C24.555 103.969 26.392 102.708 28.0635 102.112C38.3462 102.704 47.633 102.19 57.1028 101.607L63.8242 100.037L121.727 98.9523C127.804 99.0633 134.621 100.773 140.198 100.485C143.672 100.304 147.564 100.025 151.502 100.238C154.401 100.378 157.238 100.263 159.596 99.4536C160.099 99.2769 160.616 99.9138 160.869 99.9138C183.173 99.7905 204.749 99.092 225.62 96.9595L239.63 94.4943L249.131 91.162L254.927 85.4426C256.099 83.4087 256.891 80.6805 257.806 77.7345Z" fill="#0E1727"/>
<path d="M257.24 70.7003C257.568 73.0268 257.757 75.3773 257.806 77.7346C256.891 80.6806 256.099 83.3883 254.924 85.4262L249.128 91.1457L239.627 94.4779L225.617 96.9432C204.753 99.0798 183.177 99.7742 160.867 99.8975C160.613 99.8975 160.096 99.2606 159.593 99.4373C157.249 100.259 154.413 100.362 151.499 100.222C147.561 100.008 143.669 100.288 140.196 100.469C134.618 100.756 127.801 99.0469 121.724 98.936L63.8213 100.021L57.0999 101.59C47.6301 102.174 38.3433 102.687 28.0606 102.096C26.389 102.691 24.5415 103.953 22.5568 103.678C18.6541 103.131 15.8424 100.9 12.2178 98.9689C12.211 98.9721 12.2034 98.9721 12.1967 98.9689C12.0841 98.862 11.6512 98.5251 11.5949 98.3115C11.5034 97.9252 11.5562 96.3351 11.7497 96.1297L16.0219 91.8935C17.2711 89.3008 18.2811 86.0138 19.8295 83.1294C19.8647 80.9353 19.4776 78.659 19.2805 76.5019C19.9395 73.977 20.4278 71.3956 20.7409 68.7815C20.8817 67.9597 22.233 65.9464 22.4442 65.1986C22.6201 64.5864 22.4688 62.4868 22.7503 61.8705C23.9503 59.134 26.0336 57.3097 28.1099 56.0812C28.7503 55.6703 28.7714 54.5239 29.331 54.2569L44.931 46.9555C46.8172 46.3515 48.9392 45.5092 51.1421 46.0023L59.7286 47.88C61.3298 48.8045 62.9627 50.2795 64.3034 50.6041C67.094 50.2713 69.1492 50.1933 70.4618 49.1167C71.0329 48.6221 71.509 47.9932 71.8593 47.2707C72.2096 46.5482 72.4264 45.748 72.4958 44.9217C72.5521 43.9479 71.792 41.5401 71.9328 40.8375C72.2108 39.4652 72.2319 37.5094 72.9885 36.7287L77.0635 32.5213C79.4389 31.4201 81.765 30.2327 84.0559 29.337C89.4542 29.5917 94.2612 29.2466 99.5609 29.6492C102.049 31.5355 104.782 32.9383 107.655 33.8032C107.971 33.9018 109.133 34.0991 109.312 33.9347C110.562 32.7021 111.952 31.6708 113.127 30.319C113.331 27.414 112.743 25.0926 112.578 22.8492C113.676 20.5647 114.44 18.387 115.745 17.0188C119.201 15.7861 121.83 13.703 124.691 12.343L133.136 13.1647L140.438 16.6284L151.175 24.3366C154.054 27.1347 156.352 30.8696 158.565 34.5223C160.951 34.3209 163.186 33.8936 165.603 33.947C166.307 30.3642 167.282 27.1716 168.359 23.4573C170.016 22.2246 172.303 21.2344 173.831 19.2992L181.991 20.0881L186.883 21.7316C192.598 25.1378 198.394 28.507 203.299 32.8253C205.611 34.8797 206.952 38.0723 208.455 41.5319C208.578 41.8236 208.135 44.5519 208.282 45.3202C208.508 46.7008 208.708 49.1373 209.458 49.2113L216.749 49.918C218.829 44.9134 223.164 42.0619 229.678 43.4877L239.532 46.5939C240.784 48.5497 242.699 49.6714 244.458 50.7931C246.401 53.9857 249.202 56.188 250.997 57.9137C252.503 61.0117 254.069 62.7415 255.308 64.5124C256.022 66.5956 256.926 68.5267 257.24 70.7003Z" fill="white"/>
</svg>
