<svg width="256" height="140" viewBox="0 0 256 140" fill="none" xmlns="http://www.w3.org/2000/svg">
<path d="M-125.548 134.486C-109.437 131.486 -74.0681 129.273 -57.8374 131.549C-3.99125 139.113 50.4501 141.608 104.766 138.999C144.488 137.089 184.298 132.449 223.924 135.752C233.677 136.548 244.971 137.344 251.657 130.18C260.371 120.915 254.62 105.506 246.273 95.9544C242.543 91.6801 238.182 87.6606 232.758 85.9413C228.261 84.5245 223.317 84.7792 218.924 83.052C210.649 79.8045 206.639 70.7545 202.15 63.0815C194.761 50.3463 181.382 38.6299 166.853 41.4396C163.338 42.1161 159.72 43.6285 156.325 42.53C152.811 41.3998 150.734 37.8976 148.633 34.8889C144.548 29.2034 139.217 24.5197 133.044 21.1932C126.872 17.8668 120.02 15.985 113.009 15.6905C105.994 15.5069 99.03 16.9165 92.6434 19.8125C86.2567 22.7085 80.6151 27.0149 76.1461 32.4055C63.4698 18.0227 48.8925 2.9553 29.8182 0.392333C10.2487 -2.26615 -8.31442 9.02843 -24.0659 20.8961C-30.2083 25.5285 -36.3748 30.4475 -40.2009 37.1414C-44.0269 43.8354 -45.0413 52.5989 -40.7759 58.9904H-59.5227C-67.5103 58.9904 -75.7375 58.9903 -83.126 62.0388C-95.5227 67.0931 -103.662 80.9348 -102.033 94.1714C-101.521 98.3582 -100.331 103.221 -103.183 106.334C-104.684 107.965 -106.945 108.618 -109.054 109.31C-114.493 111.085 -119.909 113.68 -123.487 118.13C-127.066 122.579 -128.344 129.273 -125.26 134.049" fill="white"/>
</svg>
