<svg width="128" height="104" viewBox="0 0 128 104" fill="none" xmlns="http://www.w3.org/2000/svg">
<path d="M-157.912 99.9042C-145.839 97.6751 -119.336 96.0313 -107.173 97.7224C-66.8237 103.341 -26.0282 105.194 14.6729 103.257C44.4386 101.838 74.2701 98.3905 103.964 100.844C111.272 101.436 119.736 102.027 124.745 96.7054C131.276 89.8229 126.966 78.3758 120.711 71.2804C117.916 68.1052 114.648 65.1193 110.584 63.8421C107.214 62.7896 103.509 62.9788 100.217 61.6958C94.0161 59.2833 91.0114 52.5605 87.6476 46.8606C82.1111 37.4001 72.0854 28.6965 61.1979 30.7837C58.5643 31.2863 55.8528 32.4097 53.309 31.5937C50.6754 30.7541 49.1192 28.1525 47.545 25.9175C44.4837 21.6939 40.4888 18.2146 35.8634 15.7436C31.2381 13.2725 26.1037 11.8745 20.8499 11.6558C15.5937 11.5194 10.375 12.5666 5.58914 14.7179C0.803299 16.8692 -3.42421 20.0682 -6.77304 24.0727C-16.272 13.3883 -27.1954 2.19537 -41.4887 0.291447C-56.1531 -1.68342 -70.0633 6.70683 -81.8666 15.5228C-86.4694 18.964 -91.0903 22.6181 -93.9573 27.5908C-96.8243 32.5634 -97.5845 39.0734 -94.3882 43.8214H-108.436C-114.422 43.8214 -120.587 43.8214 -126.123 46.086C-135.413 49.8406 -141.512 60.123 -140.291 69.9559C-139.908 73.0661 -139.016 76.6788 -141.153 78.9907C-142.278 80.2028 -143.972 80.6877 -145.552 81.2021C-149.628 82.5206 -153.686 84.4482 -156.368 87.7534C-159.049 91.0587 -160.007 96.0313 -157.696 99.579" fill="white"/>
</svg>
