<svg width="213" height="140" viewBox="0 0 213 140" fill="none" xmlns="http://www.w3.org/2000/svg">
<path d="M1.45201 134.486C17.5629 131.486 52.9319 129.273 69.1626 131.549C123.009 139.113 177.45 141.608 231.766 138.999C271.488 137.089 311.298 132.449 350.924 135.752C360.677 136.548 371.971 137.344 378.657 130.18C387.371 120.915 381.62 105.506 373.273 95.9544C369.543 91.6801 365.182 87.6606 359.758 85.9413C355.261 84.5245 350.317 84.7792 345.924 83.052C337.649 79.8045 333.639 70.7545 329.15 63.0815C321.761 50.3463 308.382 38.6299 293.853 41.4396C290.338 42.1161 286.72 43.6285 283.325 42.53C279.811 41.3998 277.734 37.8976 275.633 34.8889C271.548 29.2034 266.217 24.5197 260.044 21.1932C253.872 17.8668 247.02 15.985 240.009 15.6905C232.994 15.5069 226.03 16.9165 219.643 19.8125C213.257 22.7085 207.615 27.0149 203.146 32.4055C190.47 18.0227 175.892 2.9553 156.818 0.392333C137.249 -2.26615 118.686 9.02843 102.934 20.8961C96.7917 25.5285 90.6252 30.4475 86.7991 37.1414C82.9731 43.8354 81.9587 52.5989 86.2241 58.9904H67.4773C59.4897 58.9904 51.2625 58.9903 43.874 62.0388C31.4773 67.0931 23.338 80.9348 24.9675 94.1714C25.4787 98.3582 26.6688 103.221 23.8172 106.334C22.3155 107.965 20.0551 108.618 17.9464 109.31C12.5068 111.085 7.09129 113.68 3.51286 118.13C-0.0655672 122.579 -1.34365 129.273 1.73955 134.049" fill="white"/>
</svg>
