<svg width="203" height="74" viewBox="0 0 203 74" fill="none" xmlns="http://www.w3.org/2000/svg">
<path d="M10.7887 17.7653C12.2927 16.9881 13.8017 16.3881 15.3932 16.0491C22.4033 14.5553 28.6006 16.1708 33.8619 21.0621C37.0805 24.0512 39.0313 27.7862 39.7727 32.1124C40.5945 36.8427 39.6885 41.7109 37.2199 45.8288C34.7513 49.9467 30.8847 53.0398 26.3254 54.5439C15.0731 58.2782 2.9883 51.393 0.4579 39.8032C0.0710128 38.0724 -0.0718005 36.2959 0.033615 34.5255C0.0416342 34.4045 0.033615 34.2828 0.033615 34.161C0.033615 25.8566 0.033615 17.5519 0.033615 9.24699C0.033615 6.64791 0.963837 4.40899 2.83083 2.59801C4.69783 0.78704 6.96506 -0.0528386 9.56325 0.00256962C9.88902 0.00907938 10.1991 0.14364 10.4264 0.3771C10.6537 0.610561 10.78 0.924148 10.7778 1.24999C10.788 2.14819 10.7778 3.04711 10.7778 3.9475V17.7667L10.7887 17.7653ZM20.0391 26.3455C14.974 26.3455 10.8536 30.4414 10.8463 35.4799C10.8405 40.5833 14.9485 44.7148 20.026 44.7163C25.0715 44.7163 29.2218 40.5905 29.224 35.5695C29.2261 30.4662 25.1255 26.3492 20.0391 26.3455Z" fill="#04002F"/>
<path d="M181.053 55.6408C180.402 55.5679 179.8 55.5191 179.203 55.4359C174.987 54.8474 171.326 53.0964 168.222 50.1831C164.771 46.9381 162.716 42.9341 162.11 38.2485C161.367 32.494 162.863 27.3177 166.546 22.8311C169.653 19.0466 173.684 16.7464 178.501 15.8949C188.834 14.0723 198.938 20.5288 201.419 30.9193C202.741 36.455 201.791 41.6364 198.795 46.4759C197.416 48.7024 196.161 51.0055 194.851 53.2736C191.935 58.325 189.017 63.3763 186.097 68.4277C183.517 72.8655 177.815 74.3331 173.43 71.7165C172.615 71.2295 172.445 70.5762 172.92 69.748L180.848 56.0075C180.91 55.9047 180.966 55.799 181.053 55.6408ZM181.977 26.4283C176.986 26.4181 172.847 30.5008 172.765 35.3855C172.682 40.4976 176.744 44.7939 181.955 44.8005C187.015 44.807 191.171 40.6485 191.155 35.6049C191.148 33.1729 190.179 30.8424 188.459 29.1228C186.74 27.4032 184.409 26.4344 181.977 26.4283Z" fill="#E9A520"/>
<path d="M135.563 28.9766L138.861 25.8089L147.472 17.5377C147.726 17.2947 147.979 17.0505 148.232 16.805C149.006 16.0541 149.99 16.0556 150.749 16.8138C152.699 18.7618 154.649 20.7103 156.597 22.6593C157.245 23.3075 157.238 24.0241 156.577 24.6591C153.417 27.6949 150.26 30.7312 147.104 33.768C146.162 34.6778 146.165 35.8217 147.11 36.7345C150.016 39.5423 152.928 42.3431 155.847 45.1368L163.09 52.0986L164.244 53.209C164.651 53.6019 164.765 54.1013 164.561 54.6C164.358 55.0987 163.962 55.367 163.401 55.367C159.587 55.367 155.774 55.3794 151.96 55.3619C150.534 55.356 149.336 54.7611 148.315 53.7805C145.283 50.8599 142.249 47.9406 139.214 45.0224L135.886 41.8196C135.802 41.7395 135.709 41.668 135.566 41.5463V53.6449C135.566 54.7997 134.856 55.5492 133.697 55.5572C131.364 55.5733 129.032 55.5733 126.699 55.5572C125.543 55.5478 124.825 54.791 124.825 53.6435C124.825 38.8086 124.825 23.9736 124.825 9.13827C124.825 4.43732 128.482 0.462522 133.155 0.0520634C133.505 0.021443 133.857 0.00539241 134.208 0.0039343C135.058 -0.00044003 135.56 0.506989 135.56 1.35926C135.56 8.765 135.56 16.1705 135.56 23.5758V28.9773L135.563 28.9766Z" fill="#04002F"/>
<path d="M73.5563 53.1344C72.5663 53.6535 71.6084 54.1165 70.5943 54.4409C63.2896 56.7739 56.6476 55.5454 50.8039 50.5703C47.2558 47.5491 45.0855 43.6443 44.3463 39.0447C43.2783 32.3913 45.0753 26.5538 49.7621 21.6844C52.9034 18.4204 56.7766 16.4709 61.2666 15.9015C67.5522 15.1032 73.0766 16.8639 77.716 21.2047C80.9353 24.2164 82.876 27.9499 83.64 32.2863C83.8779 33.625 83.9644 34.9862 83.898 36.3443C83.8805 36.6825 83.917 37.0223 83.917 37.3649C83.917 42.7181 83.917 48.0721 83.917 53.4268C83.917 54.9775 82.9518 55.9391 81.3939 55.9398C79.6574 55.9398 77.9194 55.8997 76.1844 55.9515C74.4836 56.0018 73.4346 54.7318 73.5665 53.3786C73.5681 53.2971 73.5647 53.2155 73.5563 53.1344ZM63.9837 26.6369C58.9054 26.6369 54.7981 30.7364 54.7908 35.804C54.7835 40.8717 58.9229 45.0178 63.9982 45.0091C68.9941 45.0018 73.167 40.8826 73.1685 35.9564C73.1699 30.7451 69.1225 26.6369 63.9837 26.6369Z" fill="#04002F"/>
<path d="M87.8284 35.5812C87.8284 26.2245 94.4769 17.992 103.648 16.0855C109.454 14.8789 114.788 16.0578 119.609 19.5121C120.817 20.3774 120.938 21.9303 119.892 22.9831C118.523 24.3615 117.149 25.7353 115.771 27.1044C114.784 28.0901 113.503 28.2578 112.277 27.5805C110.122 26.39 107.816 25.9722 105.472 26.7363C101.782 27.9378 99.3701 30.4792 98.7169 34.3389C97.9981 38.5907 100.547 42.704 104.606 44.1942C107.181 45.142 109.702 44.943 112.131 43.6686C113.447 42.9782 114.703 43.1531 115.748 44.1986C117.036 45.4861 118.324 46.7741 119.612 48.0626C120.788 49.2393 120.647 50.9285 119.283 51.8858C116.376 53.9271 113.159 55.1446 109.614 55.4377C103.787 55.9196 98.6622 54.2239 94.3304 50.3023C90.7152 47.0288 88.6303 42.9169 87.9815 38.084C87.8696 37.2546 87.8184 36.4181 87.8284 35.5812Z" fill="#04002F"/>
</svg>
