<svg width="149" height="90" viewBox="0 0 149 90" fill="none" xmlns="http://www.w3.org/2000/svg">
<path d="M22.0933 70.3953L19.0616 73.2892C16.9896 71.1069 14.672 70.0145 12.0913 70.0145C11.0696 69.9997 10.0553 70.1899 9.10837 70.5739C8.16146 70.9579 7.30119 71.5279 6.57843 72.2502C5.85567 72.9725 5.2851 73.8324 4.90048 74.779C4.51586 75.7257 4.32499 76.7399 4.33917 77.7616C4.31653 79.1761 4.66189 80.5722 5.34138 81.813C5.99647 82.9844 6.96925 83.9467 8.14757 84.5891C9.38096 85.2668 10.7693 85.6121 12.1765 85.5913C13.364 85.6071 14.5409 85.3661 15.6266 84.8848C16.6739 84.4163 17.8164 83.5594 19.0717 82.3166L22.0106 85.3884C20.3269 87.0337 18.7359 88.1729 17.2376 88.8059C15.6083 89.4673 13.862 89.7921 12.1038 89.7605C8.55597 89.7605 5.65374 88.6364 3.39709 86.3881C1.14045 84.1398 0.00878481 81.2626 0.00210341 77.7566C-0.0379702 75.6334 0.495215 73.5388 1.54551 71.6932C2.60457 69.8992 4.13143 68.4269 5.96275 67.4338C7.85119 66.3649 9.98645 65.8086 12.1564 65.8202C14.0443 65.8276 15.9086 66.2406 17.6231 67.0312C19.3375 67.8219 20.862 68.9717 22.0933 70.4029V70.3953Z" fill="white"/>
<path d="M32.0879 66.3889H36.4425V81.1339C36.4425 82.4067 36.5536 83.3062 36.7757 83.8324C37.0036 84.3547 37.3891 84.7927 37.8782 85.0852C38.4394 85.4117 39.0807 85.5749 39.7297 85.5562C40.426 85.5749 41.1126 85.3912 41.7066 85.0275C42.2242 84.7172 42.6276 84.2479 42.8566 83.6896C43.0671 83.1434 43.1732 82.1086 43.1748 80.5852V66.3889H47.5294V79.9839C47.5294 82.279 47.4 83.8716 47.1411 84.7619C46.8438 85.7188 46.3391 86.5983 45.6628 87.3376C44.9719 88.1327 44.1103 88.7614 43.1423 89.1767C42.0852 89.5899 40.9572 89.7909 39.8224 89.768C38.3056 89.8047 36.8095 89.4102 35.5079 88.6305C34.367 87.9628 33.451 86.9701 32.8771 85.7792C32.351 84.6367 32.0879 82.7049 32.0879 79.9839V66.3889Z" fill="white"/>
<path d="M70.8884 69.4907L67.6763 72.327C66.5438 70.7569 65.3938 69.971 64.2262 69.9693C63.72 69.9474 63.223 70.1103 62.8281 70.4278C62.6646 70.5469 62.5306 70.7018 62.4363 70.8808C62.3421 71.0597 62.2901 71.2579 62.2844 71.4601C62.288 71.8551 62.4248 72.2374 62.6728 72.545C63.0236 72.9993 64.0851 73.9756 65.8573 75.4739C67.5084 76.862 68.5157 77.7289 68.8639 78.0947C69.6334 78.8288 70.2671 79.6931 70.7356 80.6479C71.1067 81.4836 71.2938 82.3893 71.2843 83.3037C71.3085 84.1695 71.1484 85.0305 70.8144 85.8296C70.4805 86.6288 69.9805 87.3478 69.3475 87.9389C68.0547 89.1583 66.3676 89.768 64.2863 89.768C62.7794 89.8042 61.296 89.3888 60.0269 88.5753C58.8268 87.7811 57.7945 86.5258 56.9326 84.8171L60.5807 82.6122C61.6798 84.6316 62.9434 85.6397 64.3715 85.6364C65.0557 85.6588 65.724 85.4277 66.2482 84.9874C66.4786 84.8097 66.6659 84.5821 66.7961 84.3218C66.9262 84.0615 66.9959 83.7751 66.9998 83.4841C66.9829 82.9184 66.7814 82.3737 66.4261 81.9332C66.0419 81.4204 65.1983 80.6303 63.8955 79.563C61.4284 77.5402 59.829 75.9776 59.0974 74.8751C58.4176 73.9094 58.04 72.7635 58.0125 71.5829C58.0061 70.815 58.1639 70.0547 58.4755 69.3529C58.7871 68.6511 59.2452 68.0241 59.819 67.5139C61.024 66.3792 62.6292 65.7675 64.2838 65.8126C65.4178 65.8102 66.5354 66.0828 67.541 66.6069C68.5766 67.1314 69.6924 68.0927 70.8884 69.4907Z" fill="white"/>
<path d="M81.4744 66.3889H85.7814V89.1892H81.4744V66.3889Z" fill="white"/>
<path d="M117.977 70.3953L114.941 73.2892C112.874 71.1077 110.55 70.0161 107.968 70.0145C106.947 70.0013 105.934 70.1928 104.988 70.5775C104.042 70.9622 103.183 71.5324 102.461 72.2544C101.74 72.9765 101.17 73.8358 100.785 74.7816C100.401 75.7275 100.21 76.7407 100.223 77.7616C100.201 79.1761 100.546 80.5722 101.225 81.813C101.881 82.9831 102.853 83.9451 104.029 84.5891C105.261 85.2653 106.648 85.6106 108.053 85.5913C109.244 85.6077 110.424 85.3667 111.513 84.8848C112.554 84.4171 113.7 83.561 114.951 82.3166L117.892 85.3884C116.208 87.0337 114.616 88.1729 113.114 88.8059C111.486 89.4674 109.74 89.7921 107.983 89.7605C104.44 89.7605 101.539 88.6364 99.2786 86.3881C97.0187 84.1398 95.8912 81.2601 95.8962 77.749C95.8536 75.6289 96.3842 73.5367 97.4321 71.6932C98.4894 69.8987 100.016 68.4262 101.847 67.4338C103.736 66.3655 105.872 65.8093 108.043 65.8202C109.93 65.827 111.793 66.239 113.507 67.0283C115.221 67.8176 116.746 68.9659 117.977 70.3953Z" fill="white"/>
<path d="M139.49 66.3914H135.088L126.293 89.1967H130.806L137.315 72.4372L143.752 89.1967H148.262L139.49 66.3914Z" fill="white"/>
<path d="M46.1814 58.3311L54.5173 58.301L83.7543 39.7276L83.1229 34.7466L46.1814 58.3311Z" fill="white"/>
<path d="M72.5596 35.3404L45.0189 53.1772L45.7154 57.9026L82.7546 34.1828L45.3346 19.3401L40.4363 22.3643L72.5596 35.3404Z" fill="white"/>
<path d="M45.0514 29.8558L66.4762 38.4873L66.4711 38.4973L71.149 35.4757L40.3811 23.0508L45.0514 29.8558Z" fill="white"/>
<path d="M102.087 0L93.7488 0.0325718L64.5093 18.6085L65.1457 23.587L102.087 0Z" fill="white"/>
<path d="M75.704 22.9958L103.245 5.15645L102.551 0.436035L65.509 24.1508L102.932 38.9936L107.827 35.9744L75.704 22.9958Z" fill="white"/>
<path d="M103.215 28.4777L81.7901 19.8462L81.7951 19.8362L77.1147 22.8578L107.883 35.2777L103.215 28.4777Z" fill="white"/>
</svg>
