<svg width="389" height="822" viewBox="0 0 389 822" fill="none" xmlns="http://www.w3.org/2000/svg">
<rect width="389" height="792.368" fill="#2A2A2D"/>
<path 
    d="M13.5006 811.908L0 792.368H389L367.878 814.447C363.94 818.563 357.364 818.563 353.426 814.447L339.529 799.921C335.592 795.805 329.016 795.805 325.078 799.921L311.181 814.447C307.243 818.563 300.668 818.563 296.73 814.447L282.833 799.921C278.895 795.805 272.319 795.805 268.381 799.921L254.485 814.447C250.547 818.563 243.971 818.563 240.033 814.447L226.137 799.921C222.199 795.805 215.623 795.805 211.685 799.921L197.789 814.447C193.851 818.563 187.275 818.563 183.337 814.447L169.44 799.921C165.502 795.805 158.927 795.805 154.989 799.921L141.092 814.447C137.154 818.563 130.579 818.563 126.641 814.447L112.744 799.921C108.806 795.805 102.23 795.805 98.2924 799.921L84.3958 814.447C80.4579 818.563 73.8821 818.563 69.9442 814.447L56.0477 799.921C52.1098 795.805 45.534 795.805 41.596 799.921L28.9536 813.136C24.5757 817.712 17.1006 817.118 13.5006 811.908Z" 
    fill="#2A2A2D"/>
</svg>
