<svg width="56" height="60" viewBox="0 0 56 60" fill="none" xmlns="http://www.w3.org/2000/svg">
<path d="M41.8537 35.8805C46.3981 43.7151 50.8297 51.3576 55.5 59.4134C51.2248 59.4134 47.3609 59.4748 43.505 59.344C42.9551 59.3246 42.281 58.4561 41.9279 57.8297C38.3945 51.5707 34.8596 45.3101 31.4601 38.9769C30.5571 37.2947 29.525 36.4552 27.5785 36.6667C26.0965 36.8282 24.5854 36.6974 22.8389 36.6974V59.2746H11.3891V36.6328H5.16099C0.542348 36.6328 0.542349 36.6328 0.545574 31.9027C0.545574 30.4788 0.545574 29.0549 0.545574 27.4034H11.1488V24.0826H0.718129V14.9742H11.2617V0.606183C11.7261 0.460889 12.0115 0.292984 12.2954 0.294598C21.1553 0.312357 30.0233 0.099258 38.8703 0.446351C48.6526 0.830575 53.8905 6.28398 54.5308 15.9897C55.2258 26.6285 52.036 31.7186 41.8537 35.8805ZM22.876 27.3146C28.1219 27.3146 33.1421 27.3921 38.1575 27.2823C40.6781 27.2274 42.3423 25.6421 42.5116 23.0397C42.706 19.9311 42.6995 16.8131 42.4923 13.7053C42.323 11.1578 41.0312 10.039 38.3962 9.94379C34.7258 9.80979 31.0489 9.87275 27.3753 9.855C25.8965 9.855 24.4177 9.855 22.8808 9.855L22.876 27.3146Z" fill="#0E1727"/>
</svg>
