<svg width="46" height="77" viewBox="0 0 46 77" fill="none" xmlns="http://www.w3.org/2000/svg">
<path d="M29.1117 66.4983V74.7133C29.1117 76.3629 28.635 76.8342 26.9714 76.8342C24.2798 76.8342 21.5883 76.8342 18.8967 76.8342C17.3965 76.8342 16.8439 76.2928 16.8323 74.7775C16.8147 72.3431 16.805 69.9086 16.8323 67.4721C16.842 66.7203 16.6104 66.4749 15.8341 66.4808C11.4543 66.5178 7.07833 66.5003 2.6985 66.4983C0.994043 66.4983 0.141811 65.7349 0.104842 64.0482C0.0561992 61.8416 0.0231228 59.6291 0.130138 57.4264C0.200781 56.6619 0.490646 55.9342 0.96485 55.3308C9.09799 44.8865 17.2525 34.4578 25.4285 24.0446C25.6425 23.772 25.8468 23.4915 26.1854 23.0455C25.5919 23.0143 25.1911 22.9734 24.7903 22.9734C17.9802 22.9734 11.1702 22.9734 4.36015 22.9734C1.94161 22.9734 1.25866 22.2781 1.24698 19.83C1.24698 17.7188 1.24698 15.6076 1.24698 13.4984C1.24698 11.356 2.02527 10.577 4.19087 10.577C7.98698 10.5634 11.7792 10.5419 15.5753 10.5945C16.5696 10.6082 16.8595 10.2965 16.8323 9.31884C16.77 7.01679 16.805 4.70889 16.8167 2.40488C16.8167 0.846805 17.3829 0.262526 18.9181 0.262526C21.6097 0.240453 24.3012 0.240453 26.9928 0.262526C28.6253 0.276159 29.1039 0.800063 29.1059 2.45357C29.1059 4.8238 29.1429 7.19597 29.0864 9.56424C29.067 10.4056 29.3627 10.6004 30.143 10.5945C33.9702 10.5634 37.7975 10.5789 41.6228 10.5809C44.376 10.5809 45.0258 11.2236 45.0258 13.9385C45.0258 15.6271 44.9966 17.3157 45.0375 19.0023C45.0671 19.9144 44.7611 20.8057 44.1775 21.5069C36.7578 30.9852 29.3472 40.4706 21.9456 49.9632C20.9105 51.2876 19.8793 52.6159 18.6768 54.1603H42.1909C44.2028 54.1603 45.0219 54.9783 45.0258 56.9921C45.0258 59.1994 45.0258 61.4067 45.0258 63.6139C45.0258 65.7173 44.2475 66.51 42.1773 66.51H29.1039L29.1117 66.4983Z" fill="#0E1727"/>
</svg>
